# xmcd
#
# Track frame offsets:
#	150
#	18090
#	35087
#	50357
#	62450
#	75997
#	97779
#	111850
#	129535
#	143652
#	155140
#	170685
#	186520
#	202009
#	216717
#	230085
#	246297
#
# Disc length: 3485 seconds
#
# Revision: 0
# Processed by: cddbd v1.5.2PL0 Copyright (c) Steve Scherf et al.
# Submitted via: VUPlayer 2.49
#
DISCID=f40d9b11
DTITLE=Various Artist - Hollandse Gouwe  9
DYEAR=2003
DGENRE=Folk
TTITLE0=Zangeres Zonder Naam - Mexico =Live=
TTITLE1=Rob de Nijs - Alles wat ademt
TTITLE2=De Vrijbuiters - Rode rozen gaf jij aan mij
TTITLE3=Arne Jansen - Ik doe alles voor jou
TTITLE4=Corry Konings - De hele avond dans ik alleen met jou
TTITLE5=André van Duin - Doorgaan
TTITLE6=Willy en Willeke Alberti - Niemand laat z'n eigen kind alleen
TTITLE7=Rocco Granata - Marina
TTITLE8=Marianne Weber - Ik weet dat er een ander is
TTITLE9=Tante Leen en Johnny Jordaan - Het mooiste plekje
TTITLE10=Ben Cramer - Alles is anders
TTITLE11=Linda Williams - Het is een wonder
TTITLE12=Benny Neyman - Ik weet niet hoe
TTITLE13=Bonnie St. Claire - Pierrot
TTITLE14=Koos Alberts - Jij blijft bij mij
TTITLE15=Hepie en Hepie - Ik heb alleen nog maar die foto
TTITLE16=C'est Tout - De tandenborstel jive
EXTD=
EXTT0=
EXTT1=
EXTT2=
EXTT3=
EXTT4=
EXTT5=
EXTT6=
EXTT7=
EXTT8=
EXTT9=
EXTT10=
EXTT11=
EXTT12=
EXTT13=
EXTT14=
EXTT15=
EXTT16=
PLAYORDER=
